<svg xmlns="http://www.w3.org/2000/svg" width="415" height="1516" fill="none"><defs/><path fill="#0D5489" fill-rule="evenodd" d="M301.039 549.549c-50.327-23.664-64.392-57.422-100.3-57.422-30.654 0-55.77 23.677-55.77 57.422 0 33.739 25.116 57.412 55.77 57.412 35.908 0 49.973-33.744 100.3-57.412z" clip-rule="evenodd"/><path fill="#0D5489" fill-rule="evenodd" d="M20.112 549.545c0-37.805 10.533-74.689 30.457-106.666l1.293-2.085h98.599l-10.143 8.004c-30.944 24.441-48.689 61.165-48.689 100.747 0 70.383 56.415 127.641 125.762 127.641 69.346 0 125.765-57.258 125.765-127.641 0-65.576-48.424-120.149-112.641-126.941l-3.957-.413v-72.64l4.727.331c102.825 7.301 183.38 95.005 183.38 199.663 0 110.401-88.496 200.217-197.274 200.217S20.112 659.946 20.112 549.545z" clip-rule="evenodd"/><path fill="#0D5489" fill-rule="evenodd" d="M209.577 266.343c0-21.12-16.925-38.31-37.744-38.31-20.806 0-37.74 17.19-37.74 38.31v29.233c-26.065-23.618-42.247-57.917-42.247-95.141 0-70.25 56.325-127.409 125.546-127.409 69.226 0 125.546 57.159 125.546 127.409 0 30.687-10.895 60.325-30.689 83.48-5.676 6.641-8.805 15.136-8.805 23.922 0 10.59 4.512 20.643 12.382 27.584 7.265 6.392 16.544 9.536 26.123 8.85 9.593-.681 18.331-5.129 24.629-12.493 31.15-36.411 48.308-83.061 48.308-131.343C414.886 89.912 326.291 0 217.392 0S19.89 89.912 19.89 200.435c0 57.149 24.167 109.601 63.097 146.507H43.753C22.947 346.942 6 364.128 6 385.252c0 21.12 16.947 38.301 37.753 38.301h165.824v-157.21zM223.594 1411.99c0 27.18-17.44 50.08-41.379 57.48v-115.29c23.85 7.65 41.379 30.78 41.379 57.81zm-97.588 44.05a60.366 60.366 0 01-18.979-44.05c0-26.89 16.603-49.38 39.615-57.35v159.14a95.945 95.945 0 0018.447 1.81c54.87 0 99.754-46.88 99.754-104.08 0-56.74-44.884-103.61-99.754-103.61-54.414 0-98.845 46.41-98.845 103.61 0 43.06 24.507 79.82 59.762 95.7v-51.17zM255.7 1053.29h-86.196c-40.913 0-58.254 10.87-58.254 38.31 0 26.98 16.894 39.26 55.134 39.26H255.7v46.38H153.94c-50.264 0-84.955-35-84.955-85.64 0-25.54 10.228-49.68 28.035-65.75 16.441-14.68 30.672-18.93 60.036-18.93H255.7v46.37zM111.253 883.901c0-33.131 23.568-58.203 54.696-58.203 31.128 0 55.148 25.558 55.148 57.731 0 32.649-24.459 58.675-54.714 58.675-31.128 0-55.13-25.558-55.13-58.203zm152.548 0c0-34.534-16.907-68.606-43.147-86.596-20.014-13.237-32.919-16.077-72.055-16.077l-125.73-.045C10.246 781.183 0 791.568 0 804.388c0 12.82 10.247 23.218 22.87 23.218h66.142c-13.787 18.444-20.023 37.842-20.023 58.662 0 55.346 44.472 102.21 97.395 102.21 53.375 0 97.418-47.314 97.418-104.577zM262.466 1297.28c.439-5.87.439-8.31.439-11.75 0-52.38-28.46-81.75-79.606-81.75H76.114v47.97h95.175c36.437 0 47.135 9.78 49.355 45.46v.07c0 11.73 9.365 21.22 20.905 21.22 11.544 0 20.917-9.49 20.917-21.22z" clip-rule="evenodd"/></svg>